<svg xmlns="http://www.w3.org/2000/svg" xmlns:xlink="http://www.w3.org/1999/xlink" viewBox="0 0 115.255 34.132">
<g>
	<defs>
		<rect id="SVGID_1_" x="-314.534" y="-571.684" width="595.28" height="841.89"/>
	</defs>
	<clipPath id="SVGID_2_">
		<use xlink:href="#SVGID_1_"  overflow="visible"/>
	</clipPath>
	<path clip-path="url(#SVGID_2_)" d="M14.983,13.851v-0.386c0-2.125-0.746-3.201-2.153-3.201
		c-0.772,0-1.379,0.33-1.682,0.91c-0.36,0.608-0.443,1.159-0.443,2.649v6.126c0,1.408,0.083,2.125,0.303,2.731
		c0.277,0.719,0.996,1.188,1.822,1.188c1.05,0,1.74-0.607,2.043-1.821c0.11-0.47,0.137-0.883,0.166-2.235h2.869v0.635
		c0,4.001-1.739,6.099-5.051,6.099c-1.85,0-3.31-0.718-4.111-2.042c-0.689-1.132-0.883-2.208-0.883-4.939v-5.16
		c0-2.926,0.222-3.946,1.076-5.105c0.802-1.104,2.182-1.711,3.891-1.711c3.146,0,4.995,2.097,4.995,5.712v0.552H14.983z"/>
	<path clip-path="url(#SVGID_2_)" d="M23.157,26.269h-2.843V7.862h4.445c1.683,0,2.759,0.332,3.642,1.104
		c1.104,0.938,1.656,2.345,1.656,4.167c0,2.317-0.829,3.918-2.485,4.773l2.705,8.361h-2.979l-2.429-7.561h-1.713V26.269z
		 M24.207,16.086c1.213,0,1.766-0.138,2.206-0.579c0.47-0.47,0.692-1.214,0.692-2.235c0-0.993-0.223-1.738-0.692-2.208
		c-0.44-0.441-0.993-0.58-2.206-0.58h-1.05v5.603H24.207z"/>
	<polygon clip-path="url(#SVGID_2_)" points="40.879,10.484 35.388,10.484 35.388,15.341 39.444,15.341
		39.444,17.963 35.388,17.963 35.388,23.648 40.879,23.648 40.879,26.27 32.545,26.27 32.545,7.863 40.879,7.863 	"/>
	<path clip-path="url(#SVGID_2_)" d="M46.267,22.268l-0.746,4.001h-2.785l3.531-18.405h3.89l3.726,18.405h-2.926
		l-0.771-4.001H46.267z M48.197,11.396l-1.49,8.251h3.009L48.197,11.396z"/>
	<polygon clip-path="url(#SVGID_2_)" points="60.29,26.269 57.448,26.269 57.448,10.483 53.889,10.483 53.889,7.862
		63.878,7.862 63.878,10.483 60.29,10.483 	"/>
	<rect x="65.87" y="7.863" clip-path="url(#SVGID_2_)" width="2.842" height="18.406"/>
	<path clip-path="url(#SVGID_2_)" d="M88.149,26.269h-2.843V7.862h4.444c1.684,0,2.76,0.332,3.643,1.104
		c1.103,0.938,1.656,2.345,1.656,4.167c0,2.317-0.829,3.918-2.485,4.773l2.705,8.361h-2.981l-2.427-7.561h-1.712V26.269z
		 M89.198,16.086c1.213,0,1.767-0.138,2.209-0.579c0.467-0.47,0.69-1.214,0.69-2.235c0-0.993-0.224-1.738-0.69-2.208
		c-0.442-0.441-0.996-0.58-2.209-0.58h-1.049v5.603H89.198z"/>
	<path clip-path="url(#SVGID_2_)" d="M107.392,20.419c0,2.068-0.304,3.311-1.05,4.359
		c-0.827,1.158-2.206,1.767-3.972,1.767s-3.148-0.608-3.975-1.767c-0.746-1.049-1.05-2.291-1.05-4.359v-6.706
		c0-2.069,0.304-3.312,1.05-4.36c0.826-1.158,2.209-1.766,3.975-1.766s3.145,0.607,3.972,1.766c0.746,1.049,1.05,2.291,1.05,4.36
		V20.419z M100.188,20.363c0,1.463,0.083,1.96,0.358,2.512c0.331,0.606,1.021,0.993,1.823,0.993c0.8,0,1.489-0.387,1.82-0.993
		c0.303-0.58,0.358-1.021,0.358-2.512v-6.596c0-1.49-0.056-1.931-0.358-2.511c-0.331-0.606-1.021-0.993-1.82-0.993
		c-0.802,0-1.492,0.387-1.823,0.993c-0.275,0.552-0.358,1.048-0.358,2.511V20.363z"/>
	<polygon clip-path="url(#SVGID_2_)" points="84.543,7.863 81.243,7.863 74.371,17.88 74.371,7.863 71.529,7.863
		71.529,20.212 71.529,26.269 74.371,22.249 	"/>
	<path clip-path="url(#SVGID_2_)" d="M112.634,0H2.621H0v2.621v28.89v2.621h2.621h110.013h2.621v-2.621V2.621V0
		H112.634z M112.634,31.511H2.621V2.621h110.013V31.511z"/>
</g>
</svg>
