<svg xmlns="http://www.w3.org/2000/svg" xmlns:xlink="http://www.w3.org/1999/xlink" viewBox="0 0 225.875 67.375">
<g>
	<path d="M2.095,2.132c0-0.647,0.647-1.295,1.295-1.295h1.943c0.647,0,1.295,0.648,1.295,1.295v19.429
		c0,0,2.591-1.727,6.908-1.727c7.771,0,12.521,6.044,12.521,13.6c0,7.556-5.181,13.816-11.873,13.816
		c-4.965,0-7.987-3.453-7.987-3.453l-0.432,1.727c-0.216,0.646-0.432,1.078-1.08,1.078H3.39c-0.648,0-1.295-0.646-1.295-1.295V2.132
		z M13.752,42.932c4.749,0,7.771-4.533,7.771-9.498c0-5.181-2.807-9.283-8.635-9.283c-3.669,0-6.26,1.511-6.26,1.511v12.953
		C6.628,38.83,9.219,42.932,13.752,42.932z"/>
	<path d="M32.965,21.561c0-0.648,0.647-1.295,1.295-1.295h1.295c0.432,0,1.08,0.432,1.08,0.864l0.432,1.942
		c0,0,2.374-3.454,7.771-3.454c1.942,0,5.181,0.432,4.533,2.159l-0.863,2.159c-0.432,0.863-0.864,0.863-1.512,0.647
		s-1.511-0.432-2.59-0.432c-4.966,0-7.124,3.67-7.124,3.67v17.485c0,0.648-0.647,1.295-1.295,1.295h-1.943
		c-0.647,0-1.295-0.646-1.295-1.295V21.561H32.965z"/>
	<path d="M62.755,29.98c2.807,0,5.613,0.863,5.613,0.863c0-4.749-0.433-7.124-4.317-7.124
		c-3.67,0-6.692,1.079-7.771,1.511c-0.648,0.216-1.08,0-1.296-0.648l-0.432-1.727c-0.216-0.863,0.216-1.079,0.647-1.511
		c0.432-0.216,4.102-1.727,9.067-1.727c6.691,0,8.203,3.454,8.203,11.009v14.464c0,0.646-0.648,1.295-1.296,1.295h-1.295
		c-0.647,0-0.863-0.432-1.079-1.08l-0.432-1.727c-1.296,1.295-4.102,3.453-7.987,3.453c-4.534,0-7.987-3.236-7.987-8.635
		C52.178,33.65,56.062,29.98,62.755,29.98z M61.028,43.148c3.238,0,6.044-1.943,7.124-3.67v-5.182
		c-0.864-0.431-2.591-1.079-5.397-1.079c-3.67,0-6.26,1.727-6.26,5.18C56.495,41.205,58.222,43.148,61.028,43.148z"/>
	<path d="M80.889,21.561c0-0.648,0.647-1.295,1.295-1.295h1.295c0.648,0,0.864,0.216,1.08,0.864l0.647,1.942
		c0,0,3.67-3.454,9.066-3.454c7.556,0,10.146,4.965,10.146,11.657v13.816c0,0.646-0.648,1.295-1.296,1.295h-2.158
		c-0.647,0-1.296-0.648-1.296-1.295V31.491c0-4.965-2.158-7.34-5.828-7.34c-4.965,0-8.419,3.67-8.419,3.67v17.485
		c0,0.648-0.647,1.295-1.295,1.295h-1.943c-0.647,0-1.295-0.646-1.295-1.295V21.561z"/>
	<path d="M123.415,19.834c4.317,0,6.908,1.727,6.908,1.727V2.132c0-0.647,0.647-1.295,1.295-1.295h1.943
		c0.647,0,1.295,0.648,1.295,1.295v43.174c0,0.648-0.647,1.295-1.295,1.295h-1.295c-0.648,0-1.08-0.432-1.08-1.078l-0.432-1.727
		c0,0-3.238,3.453-7.987,3.453c-6.691,0-11.873-6.26-11.873-13.816C110.895,25.663,115.428,19.834,123.415,19.834z M123.199,42.932
		c4.749,0,7.124-4.316,7.124-4.316V25.663c0,0-2.807-1.511-6.26-1.511c-5.613,0-8.636,4.102-8.636,9.283
		S118.45,42.932,123.199,42.932z"/>
	<path d="M142.628,5.155c0-1.727,1.295-3.238,3.022-3.238c1.727,0,3.238,1.295,3.238,3.238
		c0,1.727-1.296,3.022-3.238,3.022C143.923,8.393,142.628,6.881,142.628,5.155z M143.491,21.561c0-0.648,0.648-1.295,1.296-1.295
		h1.942c0.647,0,1.296,0.647,1.296,1.295v23.531c0,0.646-0.648,1.295-1.296,1.295h-1.942c-0.647,0-1.296-0.648-1.296-1.295V21.561z"/>
	<path d="M156.66,21.561c0-0.648,0.647-1.295,1.295-1.295h1.295c0.648,0,0.864,0.216,1.08,0.864l0.647,1.942
		c0,0,3.67-3.454,9.066-3.454c7.556,0,10.146,4.965,10.146,11.657v13.816c0,0.646-0.648,1.295-1.296,1.295h-2.158
		c-0.648,0-1.296-0.648-1.296-1.295V31.491c0-4.965-2.158-7.34-5.828-7.34c-4.965,0-8.419,3.67-8.419,3.67v17.485
		c0,0.648-0.647,1.295-1.296,1.295h-1.942c-0.647,0-1.295-0.646-1.295-1.295V21.561z"/>
	<path d="M190.12,37.752c0,0-2.159-2.592-2.159-6.477c0-6.044,4.318-11.441,11.01-11.441h11.01
		c0.647,0,1.295,0.432,1.295,1.295v1.079c0,0.432-0.216,1.08-0.647,1.08l-3.454,0.647c0,0,3.022,2.159,3.022,7.34
		c0,6.045-4.317,11.01-11.01,11.01c-4.102,0-6.26-1.727-6.26-1.727s-2.807,1.295-2.807,3.885c0,1.727,1.079,3.238,3.67,3.238h9.498
		c5.397,0,9.715,2.59,9.715,8.42c0,5.396-5.613,10.576-13.601,10.576c-8.851,0-12.521-4.748-12.521-9.066
		c0-3.885,3.238-5.611,3.886-6.043v-0.217c-1.727-0.432-4.749-2.158-4.749-6.26C185.803,40.342,190.12,37.752,190.12,37.752z
		 M199.402,62.576c4.317,0,8.635-2.373,8.635-6.26c0-0.863-0.432-4.316-4.965-4.316c-2.374,0-4.749,0-7.34,0
		c0,0-4.317,1.078-4.317,4.965C191.415,60.203,194.869,62.576,199.402,62.576z M205.663,31.059c0-4.317-2.591-7.339-6.477-7.339
		s-6.907,3.022-6.907,7.339c0,4.318,2.806,7.339,6.907,7.339C203.072,38.398,205.663,35.377,205.663,31.059z"/>
	<path d="M220.559,39.695c2.158,0,3.67,1.727,3.67,3.67c0,1.941-1.728,3.668-3.67,3.668
		c-1.943,0-3.67-1.727-3.67-3.668C216.889,41.422,218.615,39.695,220.559,39.695z"/>
</g>
</svg>
