<svg xmlns="http://www.w3.org/2000/svg" xmlns:xlink="http://www.w3.org/1999/xlink" viewBox="139 242.5 53.3 30">
<g>
	<g>
		<path d="M151,242.9h-3.5c-0.4,0-0.8,0.3-0.8,0.8v20.4c0,2.4-1,3.8-2.9,3.8c-0.9,0-1.9-0.5-2.4-0.8
			c-0.4-0.2-0.8-0.1-1,0.2l-1.4,2.7c-0.2,0.3-0.1,0.8,0.2,1c0.7,0.7,2.7,1.6,4.9,1.6c4.4,0,7.7-2.9,7.7-8.4v-20.4
			C151.7,243.2,151.4,242.9,151,242.9z M163.8,266.7c-1.6,0-2.8,1.3-2.8,2.9c0,1.6,1.2,2.9,2.8,2.9c1.6,0,2.9-1.3,2.9-2.9
			C166.7,268,165.4,266.7,163.8,266.7z M163.8,242.5c-4.7,0-8.4,4-8.4,8.7c0,4.8,3.8,8.8,8.4,8.8c4.6,0,8.4-4,8.4-8.8
			C172.3,246.5,168.5,242.5,163.8,242.5z M163.8,255.5c-2.2,0-4-1.9-4-4.3c0-2.3,1.7-4.2,4-4.2c2.2,0,4,1.9,4,4.2
			C167.8,253.6,166,255.5,163.8,255.5z M191.5,242.9h-3.3c-0.5,0-0.8,0-1,0.5l-4.1,9.4h0l-4.2-9.4c-0.1-0.2-0.3-0.5-0.7-0.5h-3.7
			c-0.6,0-0.9,0.5-0.7,1.1l6.7,14.4l-5.8,12.5c-0.3,0.6,0.1,1.1,0.7,1.1h3.5c0.3,0,0.6-0.2,0.7-0.5l12.6-27.6
			C192.5,243.4,192.2,242.9,191.5,242.9z"/>
	</g>
</g>
</svg>
