<?xml version="1.0" encoding="utf-8"?>
<!-- Generator: Adobe Illustrator 17.1.0, SVG Export Plug-In . SVG Version: 6.00 Build 0)  -->
<!DOCTYPE svg PUBLIC "-//W3C//DTD SVG 1.1//EN" "http://www.w3.org/Graphics/SVG/1.1/DTD/svg11.dtd">
<svg version="1.1" id="Layer_1" xmlns="http://www.w3.org/2000/svg" xmlns:xlink="http://www.w3.org/1999/xlink" x="0px" y="0px"
	 viewBox="0 0 100 53" style="enable-background:new 0 0 100 53;" xml:space="preserve">
<style type="text/css">
	.st0{fill:#FFFFFF;}
</style>
<g>
	<path class="st0" d="M37.9,2C29,2,21.7,9.2,21.7,18.2c0,3.1-2.5,5.7-5.7,5.7s-5.7-2.5-5.7-5.7s2.5-5.7,5.7-5.7
		c1.4,0,2.7,0.5,3.7,1.4c0,0,0,0,5.3-9c-2.7-1.8-5.8-2.8-9-2.8C7.2,2.1,0,9.3,0,18.2c0,7.6,5.3,14,12.4,15.6l0,0c0,0,0,0,0,0
		c0.7,0.2,1.5,0.3,2.3,0.4c5.3,1.3,7.1,5.4,7.1,7.9c0,1.9,0,7.7,0,7.7l2.7,1.2h5.5l2.5-1.2c0,0,0-4,0-7.7c0-4.5,3.1-7.1,7.5-7.9
		c0,0,0,0,0,0c8-1,14.2-7.8,14.2-16.1C54.1,9.2,46.8,2,37.9,2z M37.9,23.9c-3.2,0-5.8-2.6-5.8-5.8s2.6-5.8,5.8-5.8
		c3.2,0,5.8,2.6,5.8,5.8S41.1,23.9,37.9,23.9z"/>
	<path class="st0" d="M64.2,11.2c1.4,0,2.5-0.5,3.2-1.5c0.4-0.6,0.7-1.3,0.8-2h-2.3c0,0.5-0.2,0.8-0.4,1.1c-0.2,0.3-0.6,0.4-1.1,0.4
		c-0.8,0-1.3-0.4-1.5-1.1c-0.1-0.4-0.2-0.9-0.2-1.5c0-0.7,0.1-1.2,0.2-1.6c0.3-0.8,0.8-1.1,1.6-1.1c0.5,0,0.9,0.2,1.2,0.5
		c0.2,0.3,0.3,0.6,0.3,0.9h2.3c-0.1-1.2-0.5-2.1-1.2-2.6C66.2,2.2,65.3,2,64.2,2c-1.3,0-2.3,0.4-3,1.3c-0.7,0.8-1.1,2-1.1,3.5
		c0,1.3,0.3,2.4,1,3.2C61.7,10.8,62.8,11.2,64.2,11.2z"/>
	<path class="st0" d="M72,6.7c0-0.7,0.1-1.2,0.3-1.6c0.3-0.6,0.9-0.9,1.9-0.9c0.1,0,0.2,0,0.3,0c0.1,0,0.2,0,0.4,0V2
		c-0.1,0-0.2,0-0.2,0c0,0-0.1,0-0.1,0c-0.7,0-1.2,0.2-1.7,0.5c-0.3,0.2-0.6,0.6-0.9,1.2V2.2h-2.2v8.7H72V6.7z"/>
	<path class="st0" d="M76.7,10.1c0.9,0.7,1.9,1.1,3.1,1.1c1.4,0,2.5-0.4,3.3-1.3c0.5-0.5,0.8-1.1,0.8-1.6h-2.3
		c-0.1,0.3-0.3,0.5-0.5,0.6c-0.3,0.3-0.7,0.4-1.3,0.4c-0.5,0-0.9-0.1-1.3-0.3c-0.6-0.4-0.9-1-0.9-1.8h6.4c0-0.8,0-1.3-0.1-1.7
		c-0.1-0.7-0.3-1.3-0.7-1.8c-0.4-0.6-0.9-1-1.5-1.3S80.5,2,79.7,2c-1.3,0-2.3,0.4-3.1,1.2c-0.8,0.8-1.2,2-1.2,3.5
		C75.4,8.3,75.9,9.4,76.7,10.1z M78.4,4.3c0.3-0.3,0.8-0.5,1.4-0.5c0.5,0,1,0.2,1.4,0.5c0.4,0.3,0.6,0.8,0.6,1.4h-3.9
		C77.9,5.1,78.1,4.7,78.4,4.3z"/>
	<path class="st0" d="M62.7,24.4c0.6,0,1.2-0.1,1.7-0.4c0.4-0.2,0.8-0.5,1.1-0.9c0,0.2,0,0.4,0.1,0.5c0,0.2,0.1,0.3,0.1,0.5h2.5
		v-0.3c-0.1-0.1-0.3-0.2-0.3-0.3c-0.1-0.1-0.1-0.3-0.1-0.6c0-0.4,0-0.7,0-1v-4c0-1.1-0.4-1.8-1.1-2.1c-0.7-0.4-1.6-0.6-2.6-0.6
		c-1.5,0-2.5,0.4-3.1,1.2c-0.4,0.5-0.6,1.1-0.6,1.9h2.2c0.1-0.3,0.2-0.6,0.3-0.8C63,17.2,63.4,17,64,17c0.5,0,0.9,0.1,1.1,0.2
		c0.3,0.1,0.4,0.4,0.4,0.7c0,0.3-0.2,0.5-0.5,0.6c-0.2,0.1-0.5,0.1-0.9,0.2l-0.8,0.1c-0.9,0.1-1.6,0.3-2,0.6
		C60.4,20,60,20.8,60,21.8c0,0.8,0.3,1.5,0.8,1.9C61.3,24.2,61.9,24.4,62.7,24.4z M62.8,20.7c0.2-0.1,0.6-0.2,1-0.3l0.5-0.1
		c0.3,0,0.5-0.1,0.6-0.2c0.1-0.1,0.3-0.1,0.4-0.2v0.8c0,0.8-0.2,1.3-0.7,1.6c-0.4,0.3-0.9,0.4-1.4,0.4c-0.3,0-0.6-0.1-0.8-0.3
		c-0.2-0.2-0.3-0.5-0.3-0.8C62.3,21.2,62.5,20.9,62.8,20.7z"/>
	<path class="st0" d="M70,22.5c0,0.5,0.1,0.9,0.4,1.2c0.4,0.4,1.1,0.6,2.2,0.6l1.1,0v-1.7c-0.1,0-0.2,0-0.2,0c-0.1,0-0.2,0-0.2,0
		c-0.5,0-0.7,0-0.8-0.1c-0.1-0.1-0.1-0.3-0.1-0.7v-4.6h1.4v-1.6h-1.4v-2.4H70v2.4h-1.2v1.6H70V22.5z"/>
	<rect x="75.2" y="15.4" class="st0" width="2.3" height="8.7"/>
	<rect x="75.2" y="12.3" class="st0" width="2.3" height="2.1"/>
	<polygon class="st0" points="81.4,15.4 78.9,15.4 82,24.2 84.4,24.2 87.6,15.4 85.1,15.4 83.3,21.9 	"/>
	<path class="st0" d="M95.9,23.2c0.5-0.5,0.8-1.1,0.8-1.6h-2.3c-0.1,0.3-0.3,0.5-0.5,0.6c-0.3,0.3-0.7,0.4-1.3,0.4
		c-0.5,0-0.9-0.1-1.3-0.3c-0.6-0.4-0.9-1-0.9-1.8h6.4c0-0.8,0-1.3-0.1-1.7c-0.1-0.7-0.3-1.3-0.7-1.8c-0.4-0.6-0.9-1-1.5-1.3
		c-0.6-0.3-1.3-0.4-2.1-0.4c-1.3,0-2.3,0.4-3.1,1.2c-0.8,0.8-1.2,2-1.2,3.5c0,1.6,0.4,2.8,1.3,3.5c0.9,0.7,1.9,1.1,3.1,1.1
		C94,24.5,95.1,24,95.9,23.2z M91.1,17.6c0.3-0.3,0.8-0.5,1.4-0.5c0.5,0,1,0.2,1.4,0.5c0.4,0.3,0.6,0.8,0.6,1.4h-3.9
		C90.6,18.4,90.8,17.9,91.1,17.6z"/>
	<path class="st0" d="M60.5,28.8v12h1.4v-4.4c0.3,0.4,0.6,0.7,0.9,0.8c0.4,0.3,1,0.4,1.6,0.4c0.8,0,1.5-0.3,2.2-0.8
		c1-0.8,1.5-2.1,1.5-4c0-1.4-0.3-2.4-1-3.2c-0.7-0.7-1.5-1.1-2.5-1.1c-0.7,0-1.2,0.2-1.7,0.5c-0.3,0.2-0.7,0.5-0.9,0.9v-1.1H60.5z
		 M62.1,31.4c0.4-1,1.1-1.5,2.1-1.5c1,0,1.7,0.5,2.1,1.4c0.2,0.5,0.3,1.1,0.3,1.8c0,1.1-0.2,2-0.7,2.5c-0.4,0.6-1,0.8-1.7,0.8
		c-1,0-1.7-0.4-2.1-1.3c-0.2-0.5-0.3-1-0.3-1.7C61.8,32.6,61.9,31.9,62.1,31.4z"/>
	<path class="st0" d="M73.1,28.6c-1.2,0-2.2,0.4-2.9,1.3c-0.7,0.9-1.1,2-1.1,3.4c0,1.3,0.3,2.4,1,3.2c0.7,0.8,1.6,1.2,2.8,1.2
		c1.4,0,2.4-0.5,3.1-1.4c0.7-0.9,1-2,1-3.4c0-1.4-0.4-2.5-1.1-3.3C75.2,28.9,74.2,28.6,73.1,28.6z M75,35.4c-0.4,0.7-1,1.1-1.9,1.1
		c-0.9,0-1.5-0.3-1.9-0.9c-0.4-0.6-0.6-1.4-0.6-2.3c0-0.9,0.2-1.8,0.6-2.4c0.4-0.7,1-1,1.9-1c1,0,1.7,0.4,2.1,1.2
		c0.3,0.5,0.4,1.2,0.4,2C75.6,33.8,75.4,34.6,75,35.4z"/>
	<rect x="78.9" y="25.6" class="st0" width="1.4" height="11.8"/>
	<path class="st0" d="M67.8,49.6c-0.2,0-0.3,0-0.4-0.1c-0.1-0.1-0.1-0.2-0.1-0.4v-4.9c0-0.8-0.3-1.4-0.9-1.8
		c-0.6-0.4-1.4-0.6-2.5-0.6c-0.9,0-1.6,0.2-2.3,0.6c-0.7,0.4-1,1.2-1,2.2H62c0.1-0.4,0.2-0.8,0.3-1c0.3-0.4,0.8-0.6,1.6-0.6
		c0.6,0,1.2,0.1,1.5,0.3c0.3,0.2,0.5,0.6,0.5,1.1c0,0.2,0,0.4-0.1,0.6c-0.1,0.2-0.3,0.4-0.7,0.4l-2.3,0.3c-0.8,0.1-1.5,0.4-2,0.8
		c-0.5,0.4-0.7,1.1-0.7,1.8c0,0.7,0.3,1.3,0.8,1.8c0.5,0.5,1.2,0.7,2,0.7c0.7,0,1.3-0.1,1.8-0.4c0.6-0.3,1-0.6,1.3-1
		c0,0.3,0.1,0.6,0.2,0.8c0.2,0.4,0.6,0.5,1.1,0.5c0.2,0,0.4,0,0.5,0c0.1,0,0.3-0.1,0.5-0.1v-1.1c-0.1,0-0.2,0-0.3,0
		C68,49.6,67.9,49.6,67.8,49.6z M65.9,47.4c0,0.9-0.4,1.5-1.2,1.9c-0.5,0.2-1,0.4-1.5,0.4c-0.4,0-0.8-0.1-1.1-0.4
		c-0.3-0.2-0.5-0.6-0.5-1c0-0.5,0.2-0.9,0.7-1.2c0.3-0.1,0.7-0.3,1.2-0.3l0.9-0.1c0.3,0,0.5-0.1,0.8-0.2c0.3-0.1,0.5-0.2,0.7-0.3
		V47.4z"/>
	<path class="st0" d="M73.9,41.8c-0.6,0-1.1,0.1-1.5,0.3c-0.5,0.2-0.9,0.6-1.3,1.1V42h-1.4v8.6h1.4v-4.5c0-0.6,0-1,0.1-1.3
		c0.1-0.3,0.2-0.6,0.5-0.9c0.3-0.4,0.6-0.6,1-0.7c0.2-0.1,0.5-0.1,0.8-0.1c0.7,0,1.1,0.3,1.4,0.8c0.2,0.3,0.2,0.7,0.2,1.3v5.4h1.5
		v-5.5c0-0.9-0.1-1.5-0.4-2C75.9,42.3,75.1,41.8,73.9,41.8z"/>
	<path class="st0" d="M84.4,43.1c-0.3-0.4-0.6-0.7-0.9-0.8c-0.4-0.3-1-0.4-1.6-0.4c-1.2,0-2.1,0.5-2.7,1.4c-0.6,0.9-1,2-1,3.2
		c0,1.3,0.3,2.4,1,3.2c0.7,0.8,1.5,1.2,2.5,1.2c0.6,0,1.1-0.1,1.6-0.4c0.5-0.2,0.9-0.6,1.2-1.1v1.2h1.3V38.8h-1.4V43.1z M83.8,48.8
		c-0.4,0.6-1,0.9-1.6,0.9c-0.9,0-1.5-0.3-1.9-0.9c-0.4-0.6-0.6-1.4-0.6-2.3c0-1.1,0.2-1.9,0.7-2.5c0.4-0.6,1-0.8,1.8-0.8
		c0.6,0,1.2,0.3,1.6,0.8c0.4,0.5,0.7,1.3,0.7,2.4C84.5,47.4,84.3,48.2,83.8,48.8z"/>
	<path class="st0" d="M94.5,46.6c-0.2-0.3-0.5-0.6-0.9-0.7c-0.3-0.2-0.7-0.2-1.2-0.2c-0.7,0-1.3,0.2-1.8,0.7c-0.5,0.5-0.7,1.1-0.7,2
		c0,0.9,0.3,1.6,0.8,2c0.5,0.4,1.1,0.6,1.7,0.6c0.8,0,1.4-0.2,1.9-0.7c0.3-0.3,0.4-0.6,0.5-0.9h-1.3c-0.1,0.1-0.2,0.3-0.3,0.3
		c-0.2,0.2-0.4,0.2-0.7,0.2c-0.3,0-0.5-0.1-0.7-0.2c-0.3-0.2-0.5-0.5-0.5-1h3.6c0-0.4,0-0.8,0-1C94.8,47.2,94.7,46.9,94.5,46.6z
		 M91.3,47.7c0-0.3,0.2-0.6,0.3-0.8c0.2-0.2,0.4-0.3,0.8-0.3c0.3,0,0.6,0.1,0.8,0.3c0.2,0.2,0.3,0.4,0.3,0.8H91.3z"/>
	<path class="st0" d="M98.7,45.7v2.7c0,0.3,0,0.6-0.1,0.8c-0.2,0.4-0.5,0.5-0.9,0.5c-0.3,0-0.6-0.1-0.7-0.4
		c-0.1-0.1-0.1-0.4-0.1-0.6v-3h-1.3v3c0,0.6,0.1,1,0.2,1.3c0.3,0.5,0.7,0.8,1.5,0.8c0.3,0,0.5,0,0.7-0.1c0.2-0.1,0.4-0.2,0.6-0.4
		c0.1-0.1,0.1-0.1,0.2-0.2c0-0.1,0.1-0.1,0.1-0.1v0.7h1.3v-5H98.7z"/>
	<circle class="st0" cx="87.8" cy="49.5" r="1.2"/>
</g>
</svg>
