<?xml version="1.0" encoding="utf-8"?>
<!-- Generator: Adobe Illustrator 17.1.0, SVG Export Plug-In . SVG Version: 6.00 Build 0)  -->
<!DOCTYPE svg PUBLIC "-//W3C//DTD SVG 1.1//EN" "http://www.w3.org/Graphics/SVG/1.1/DTD/svg11.dtd">
<svg version="1.1" id="Layer_1" xmlns="http://www.w3.org/2000/svg" xmlns:xlink="http://www.w3.org/1999/xlink" x="0px" y="0px"
	 viewBox="0 0 174 45" style="enable-background:new 0 0 174 45;" xml:space="preserve">
<style type="text/css">
	.st0{fill:#FFFFFF;}
</style>
<path class="st0" d="M117.3,35h0.7v-0.7h-0.7V35z M93.9,27.3c0,3.2-2,5.2-5,5.2c-3,0-5-2-5-5.2V11.4h-3.7v16.1c0,5,3.7,8.4,8.7,8.4
	c4.9,0,8.7-3.4,8.7-8.4V11.4h-3.7V27.3z M59.1,25.7h5.2v1.4c0,1.6-0.3,2.8-1.2,3.8c-1,1.1-2.4,1.7-4,1.7c-1.4,0-2.7-0.5-3.6-1.5
	c-1.2-1.3-1.5-2.7-1.5-7.6c0-4.9,0.3-6.2,1.5-7.5c0.9-0.9,2.2-1.5,3.6-1.5c2.7,0,4.5,1.6,5.1,4.2h3.7c-0.7-4.2-3.7-7.5-8.8-7.5
	c-2.6,0-4.7,0.9-6.4,2.6c-2.4,2.4-2.4,5.1-2.4,9.7c0,4.7,0,7.4,2.4,9.7c1.7,1.7,3.9,2.6,6.4,2.6c2.6,0,4.8-0.8,6.7-2.8
	c1.6-1.7,2.2-3.7,2.2-6.8v-3.7h-8.9V25.7z M24.5,14.8h6.7v21h3.7v-21h6.7v-3.3h-17V14.8z M15.3,23.8c-1-0.9-2.3-1.5-4.5-1.8L8,21.6
	c-1.1-0.2-2.1-0.6-2.7-1.1c-0.6-0.6-0.9-1.4-0.9-2.3c0-2.1,1.6-3.8,4.4-3.8c2,0,3.8,0.4,4.7,1.4l2.4-2.3c-1.5-1.5-3.8-2.3-7-2.3
	c-5,0-8.1,2.9-8.1,7.1c0,2,0.6,3.5,1.8,4.6c1.1,1,2.6,1.7,4.6,1.9l2.9,0.4c1.4,0.2,2,0.4,2.7,1c0.6,0.6,1,1.5,1,2.5
	c0,2.3-1.8,3.7-5,3.7c-2.5,0-4.4-0.5-6.2-2.3L0,32.7c2.3,2.3,4.9,3.2,8.6,3.2c5.1,0,8.7-2.7,8.7-7.1C17.3,26.7,16.6,25,15.3,23.8
	 M151.7,39.5c0,0.8-0.4,1.3-1.1,1.3c-0.5,0-0.7-0.2-0.9-0.4l-0.4,0.4c0.3,0.3,0.7,0.5,1.3,0.5c1,0,1.7-0.7,1.7-1.7v-3.9h-0.6V39.5z
	 M145.3,41.3h3.4v-0.5h-2.8v-2h2.4v-0.5h-2.4v-2h2.8v-0.5h-3.4V41.3z M142.7,40.2l-1.2-4.5h-0.5l-1.2,4.5l-1.1-4.5H138l1.4,5.5h0.5
	l1.2-4.4l1.2,4.4h0.6l1.4-5.5h-0.6L142.7,40.2z M136.4,40.4c-0.2,0.2-0.6,0.4-1,0.4s-0.7-0.1-1-0.4c-0.3-0.4-0.4-0.7-0.4-1.9
	c0-1.2,0-1.5,0.4-1.9c0.2-0.2,0.6-0.4,1-0.4s0.7,0.1,1,0.4c0.3,0.4,0.4,0.7,0.4,1.9C136.8,39.7,136.7,40.1,136.4,40.4 M135.4,35.7
	c-0.5,0-1,0.2-1.4,0.6c-0.5,0.5-0.5,1.1-0.5,2.2c0,1.2,0,1.7,0.5,2.2c0.4,0.4,0.9,0.6,1.4,0.6s1-0.2,1.4-0.6
	c0.5-0.5,0.5-1.1,0.5-2.2c0-1.2,0-1.7-0.5-2.2C136.5,35.9,136,35.7,135.4,35.7 M132.6,35.8h-0.7l-2.6,3.2v-3.2h-0.6v5.5h0.6v-1.5
	l1.2-1.4l1.7,2.9h0.7l-2-3.4L132.6,35.8z M123.9,36.3h1.6v5h0.6v-5h1.6v-0.5h-3.8V36.3z M121.7,38.4l-1.3-2.6h-0.6l1.6,3.2v2.3h0.6
	V39l1.6-3.2H123L121.7,38.4z M115.9,36.3h2.7l-2.8,4.4v0.6h3.4v-0.5h-2.8l2.8-4.5v-0.5h-3.3V36.3z M114.1,39.4
	c0,0.8-0.5,1.4-1.3,1.4c-0.8,0-1.3-0.6-1.3-1.4v-3.7h-0.6v3.7c0,1.1,0.8,1.9,1.9,1.9c1.1,0,1.9-0.8,1.9-1.9v-3.7h-0.6V39.4z
	 M138.1,25.7h-0.6v5.5h0.6V25.7z M135.9,31.2h0.7l-2-3.4l1.7-2.1h-0.7l-2.6,3.2v-3.2h-0.6v5.5h0.6v-1.5l1.2-1.4L135.9,31.2z
	 M130.8,25.7h-0.6v5.5h0.6V25.7z M129.2,26.2v-0.5h-3.4v5.5h0.6v-2.4h2.4v-0.5h-2.4v-2H129.2z M121.6,29.5l1-2.9l1,2.9H121.6z
	 M124.9,31.2l-2-5.5h-0.5l-2,5.5h0.6l0.4-1.2h2.4l0.4,1.2H124.9z M116.5,28.2v-2h1.5c0.6,0,1.1,0.3,1.1,1c0,0.7-0.5,1-1.1,1H116.5z
	 M119.8,31.2l-1.3-2.5c0.7-0.1,1.2-0.7,1.2-1.5c0-1-0.7-1.5-1.6-1.5h-2.1v5.5h0.6v-2.5h1.3l1.3,2.5H119.8z M112.6,31.3
	c0.6,0,1.1-0.2,1.5-0.6c0.3-0.4,0.5-0.8,0.5-1.4v-0.9h-1.9v0.5h1.4v0.4c0,0.4-0.1,0.7-0.3,1c-0.3,0.3-0.6,0.5-1,0.5
	c-0.4,0-0.7-0.1-1-0.4c-0.3-0.4-0.4-0.7-0.4-1.9c0-1.2,0-1.5,0.4-1.9c0.2-0.2,0.6-0.4,1-0.4c0.7,0,1.2,0.4,1.3,1.1h0.6
	c-0.2-1-0.9-1.7-1.9-1.7c-0.6,0-1,0.2-1.4,0.6c-0.5,0.5-0.5,1.1-0.5,2.2c0,1.2,0,1.7,0.5,2.2C111.6,31.1,112.1,31.3,112.6,31.3
	 M141.7,15.6H141l1.4,5.5h0.6l1.2-4.4l1.2,4.4h0.5l1.4-5.5h-0.6l-1.1,4.5l-1.2-4.5H144l-1.2,4.5L141.7,15.6z M139.8,18.4
	c0,1.2,0,1.5-0.4,1.9c-0.2,0.2-0.6,0.4-1,0.4c-0.4,0-0.7-0.1-1-0.4c-0.3-0.4-0.4-0.7-0.4-1.9c0-1.2,0-1.5,0.4-1.9
	c0.2-0.2,0.6-0.4,1-0.4c0.4,0,0.7,0.1,1,0.4C139.8,16.9,139.8,17.2,139.8,18.4 M137.1,16.1c-0.5,0.5-0.5,1.1-0.5,2.2
	c0,1.2,0,1.7,0.5,2.2c0.4,0.4,0.9,0.6,1.4,0.6c0.5,0,1-0.2,1.4-0.6c0.5-0.5,0.5-1.1,0.5-2.2c0-1.2,0-1.7-0.5-2.2
	c-0.4-0.4-0.9-0.6-1.4-0.6C137.9,15.6,137.4,15.8,137.1,16.1 M139.4,13.9h-0.7l-0.7,1.2h0.5L139.4,13.9z M133.5,16.1
	c0.7,0,1.2,0.4,1.3,1.1h0.6c-0.2-1-0.9-1.6-1.9-1.6c-0.5,0-1,0.2-1.4,0.6c-0.5,0.5-0.5,1.1-0.5,2.2c0,1.2,0,1.7,0.5,2.2
	c0.4,0.4,0.9,0.6,1.4,0.6c1,0,1.7-0.6,1.9-1.6h-0.6c-0.1,0.7-0.6,1.1-1.3,1.1c-0.4,0-0.7-0.1-1-0.4c-0.3-0.4-0.4-0.7-0.4-1.9
	c0-1.2,0-1.5,0.4-1.9C132.8,16.2,133.2,16.1,133.5,16.1 M127.3,18.2v-2h1.5c0.6,0,1.1,0.3,1.1,1c0,0.7-0.5,1-1.1,1H127.3z
	 M130.6,21.1l-1.3-2.5c0.7-0.1,1.2-0.7,1.2-1.5c0-1-0.7-1.5-1.6-1.5h-2.1v5.5h0.6v-2.5h1.3l1.3,2.5H130.6z M124.4,20.3
	c-0.2,0.2-0.6,0.4-1,0.4c-0.4,0-0.7-0.1-1-0.4c-0.3-0.4-0.4-0.7-0.4-1.9c0-1.2,0-1.5,0.4-1.9c0.2-0.2,0.6-0.4,1-0.4
	c0.4,0,0.7,0.1,1,0.4c0.3,0.4,0.4,0.7,0.4,1.9C124.7,19.5,124.7,19.9,124.4,20.3 M123.4,15.6c-0.6,0-1,0.2-1.4,0.6
	c-0.5,0.5-0.5,1.1-0.5,2.2c0,1.2,0,1.7,0.5,2.2c0.4,0.4,0.9,0.6,1.4,0.6c0.5,0,1-0.2,1.4-0.6c0.5-0.5,0.5-1.1,0.5-2.2
	c0-1.2,0-1.7-0.5-2.2C124.4,15.8,124,15.6,123.4,15.6 M123.5,15.1l0.8-1.2h-0.7l-0.7,1.2H123.5z M116.4,21.1l1.2-4.4l1.2,4.4h0.5
	l1.4-5.5h-0.6l-1.1,4.5l-1.2-4.5h-0.5l-1.2,4.5l-1.1-4.5h-0.6l1.4,5.5H116.4z M111.9,21.1h0.6v-5h1.6v-0.5h-3.8v0.5h1.6V21.1z
	 M174,6.1V5.5h-3.4v5.5h3.4v-0.5h-2.8v-2h2.4V8h-2.4V6.1H174z M168.4,11.1h0.6V5.5h-0.6V11.1z M166.2,10l-2.9-4.4h-0.6v5.5h0.6V6.6
	l2.9,4.4h0.6V5.5h-0.6V10z M158,11.1h3.4v-0.5h-2.8v-2h2.4V8h-2.4V6.1h2.8V5.5H158V11.1z M153.5,6.1h2.7l-2.8,4.4v0.6h3.4v-0.5H154
	l2.8-4.5V5.5h-3.3V6.1z M151,8.1L150.4,8c-0.3,0-0.6-0.2-0.7-0.3c-0.2-0.1-0.2-0.4-0.2-0.6c0-0.6,0.4-1,1.2-1c0.6,0,0.9,0.2,1.3,0.5
	l0.4-0.4c-0.5-0.4-0.9-0.6-1.6-0.6c-1.1,0-1.8,0.6-1.8,1.6c0,0.4,0.1,0.8,0.4,1c0.2,0.2,0.6,0.3,1,0.4l0.6,0.1
	c0.4,0.1,0.5,0.1,0.7,0.3c0.2,0.2,0.3,0.4,0.3,0.7c0,0.6-0.5,1-1.3,1c-0.6,0-1-0.1-1.5-0.6l-0.4,0.4c0.5,0.5,1.1,0.7,1.9,0.7
	c1.1,0,1.9-0.6,1.9-1.6c0-0.5-0.2-0.8-0.5-1.1C151.8,8.3,151.5,8.1,151,8.1 M146.1,11.1h0.6V8.8l1.6-3.2h-0.6l-1.3,2.6l-1.3-2.6
	h-0.6l1.6,3.2V11.1z M143.9,10.5h-2.8l2.8-4.5V5.5h-3.3v0.5h2.7l-2.8,4.4v0.6h3.4V10.5z M136.4,6.1h1.5c0.6,0,1.1,0.3,1.1,1
	c0,0.7-0.5,1-1.1,1h-1.5V6.1z M136.4,8.6h1.3l1.3,2.5h0.7l-1.3-2.5c0.7-0.1,1.2-0.7,1.2-1.5c0-1-0.7-1.5-1.6-1.5h-2.1v5.5h0.6V8.6z
	 M132.6,6.4l1,2.9h-2.1L132.6,6.4z M131.4,9.8h2.4l0.4,1.2h0.6l-2-5.5h-0.5l-2,5.5h0.6L131.4,9.8z M125.8,11.1l1.2-4.4l1.2,4.4h0.5
	l1.4-5.5h-0.6l-1.1,4.5l-1.2-4.5h-0.5l-1.2,4.5l-1.1-4.5h-0.6l1.4,5.5H125.8z M120.3,6.4c0.2-0.2,0.6-0.4,1-0.4c0.4,0,0.7,0.1,1,0.4
	c0.3,0.4,0.4,0.7,0.4,1.9c0,1.2,0,1.5-0.4,1.9c-0.2,0.2-0.6,0.4-1,0.4c-0.4,0-0.7-0.1-1-0.4c-0.3-0.4-0.4-0.7-0.4-1.9
	C119.9,7.2,120,6.8,120.3,6.4 M121.3,11.1c0.6,0,1-0.2,1.4-0.6c0.5-0.5,0.5-1.1,0.5-2.2c0-1.2,0-1.7-0.5-2.2
	c-0.4-0.4-0.9-0.6-1.4-0.6c-0.5,0-1,0.2-1.4,0.6c-0.5,0.5-0.5,1.1-0.5,2.2c0,1.2,0,1.7,0.5,2.2C120.2,10.9,120.7,11.1,121.3,11.1
	 M116.5,11.1h0.6v-5h1.6V5.5h-3.8v0.5h1.6V11.1z M112.3,10.6c-0.6,0-1-0.1-1.5-0.6l-0.4,0.4c0.5,0.5,1.1,0.7,1.9,0.7
	c1.1,0,1.9-0.6,1.9-1.6c0-0.5-0.2-0.8-0.5-1.1c-0.2-0.2-0.5-0.3-1-0.4L112.1,8c-0.3,0-0.6-0.2-0.7-0.3c-0.2-0.1-0.2-0.4-0.2-0.6
	c0-0.6,0.4-1,1.2-1c0.6,0,0.9,0.2,1.3,0.5l0.4-0.4c-0.5-0.4-0.9-0.6-1.6-0.6c-1.1,0-1.8,0.6-1.8,1.6c0,0.4,0.1,0.8,0.4,1
	c0.2,0.2,0.6,0.3,1,0.4l0.6,0.1c0.4,0.1,0.5,0.1,0.7,0.3c0.2,0.2,0.3,0.4,0.3,0.7C113.6,10.2,113.1,10.6,112.3,10.6"/>
</svg>
